<?xml version="1.0" encoding="UTF-8" standalone="no"?>
<svg
   xmlns:dc="http://purl.org/dc/elements/1.1/"
   xmlns:cc="http://creativecommons.org/ns#"
   xmlns:rdf="http://www.w3.org/1999/02/22-rdf-syntax-ns#"
   xmlns:svg="http://www.w3.org/2000/svg"
   xmlns="http://www.w3.org/2000/svg"
   xmlns:sodipodi="http://sodipodi.sourceforge.net/DTD/sodipodi-0.dtd"
   xmlns:inkscape="http://www.inkscape.org/namespaces/inkscape"
   inkscape:version="1.0 (4035a4fb49, 2020-05-01)"
   sodipodi:docname="brazil.svg"
   version="1.1"
   width="512"
   viewBox="0 0 512.004 512.004"
   height="512"
   enable-background="new 0 0 512.004 512.004"
   id="Layer_1">
  <metadata
     id="metadata9">
    <rdf:RDF>
      <cc:Work
         rdf:about="">
        <dc:format>image/svg+xml</dc:format>
        <dc:type
           rdf:resource="http://purl.org/dc/dcmitype/StillImage" />
        <dc:title></dc:title>
      </cc:Work>
    </rdf:RDF>
  </metadata>
  <defs
     id="defs7" />
  <sodipodi:namedview
     inkscape:current-layer="Layer_1"
     inkscape:window-maximized="1"
     inkscape:window-y="-9"
     inkscape:window-x="-9"
     inkscape:cy="428.89589"
     inkscape:cx="-40.191921"
     inkscape:zoom="0.81054688"
     showgrid="false"
     id="namedview5"
     inkscape:window-height="1001"
     inkscape:window-width="1920"
     inkscape:pageshadow="2"
     inkscape:pageopacity="0"
     guidetolerance="10"
     gridtolerance="10"
     objecttolerance="10"
     borderopacity="1"
     bordercolor="#666666"
     pagecolor="#ffffff" />
  <path
     d="M 499.65,110.241 C 446.101,100.64567 392.552,91.050333 339.003,81.455 338.3337,65.395846 340.41527,48.984737 337.82419,33.167438 329.66222,18.602673 311.47203,25.696354 297.93606,24.006 c -21.42802,0 -42.85604,0 -64.28406,0 C 220.32835,16.274462 209.01392,3.8745336 194.002,0.002 169.57991,0.5801963 144.94357,-1.1963671 120.6673,0.98453125 107.48901,7.4551352 110.95958,23.982373 107.943,36.006 89.088902,36.69403 69.884701,34.582255 51.26275,37.148125 36.497034,44.882906 43.737627,63.681898 42.003,77.072938 40.776183,86.516834 46.037208,98.83998 35.559803,104.17854 24.34647,115.26761 10.900746,124.46865 1.291875,136.92138 -1.5705961,160.35113 0.75290905,184.46625 -5.7239523e-4,208.17335 -2.369527,220.7657 3.795184,237.02294 19.34349,234.007 c 30.65817,0 61.31634,0 91.97451,0 26.532,23.48233 53.064,46.96467 79.596,70.447 8.932,28.88 17.864,57.76 26.796,86.64 -12.21651,21.11984 -25.24074,41.81904 -36.94961,63.20325 -4.90949,17.30184 15.59378,20.99646 27.08566,26.414 24.77048,10.23914 49.26529,21.23542 74.20882,30.99925 15.24602,1.44003 21.57621,-15.67359 31.43171,-24.35799 18.28178,-21.68766 38.56412,-41.91136 55.54942,-64.54776 1.92107,-10.45387 0.55893,-21.20493 0.967,-31.79575 19.83137,-0.62439 39.9057,1.30453 59.57045,-1.07075 14.18115,-8.15061 8.74754,-26.58971 11.41056,-40.26796 1.511,-20.50576 3.02199,-41.01153 4.53299,-61.51729 21.12817,-19.17865 42.87108,-37.73879 63.60755,-57.31153 5.68771,-14.00541 1.67455,-30.09783 2.87882,-45.03955 -0.53558,-21.97562 1.12303,-44.14518 -0.92435,-65.98717 -1.76706,-4.91165 -6.2739,-8.70524 -11.42902,-9.57375 z m -17.647,105.055 c -20.33233,18.17567 -40.66467,36.35133 -60.997,54.527 -8.67008,12.86839 -5.05032,29.84922 -7.51603,44.74295 -1.14066,15.48035 -2.28131,30.9607 -3.42197,46.44105 -20.25839,0.72389 -40.88946,-1.48734 -60.90356,1.17981 -14.56477,8.16197 -7.47109,26.35216 -9.16144,39.88813 3.05416,12.13225 -9.18052,18.49254 -15.31263,27.15673 -14.60213,16.58277 -29.20425,33.16555 -43.80637,49.74833 -21.41233,-9.03967 -42.82467,-18.07933 -64.237,-27.119 10.41948,-19.17579 23.79728,-37.0936 32.25375,-57.10688 C 244.70073,371.53015 235.3655,349.18186 229.07802,326.31524 223.452,312.2845 222.59244,295.60707 212.85957,283.81322 184.22105,258.46648 155.58252,233.11974 126.944,207.773 c -14.0136,-7.04507 -30.801499,-2.45338 -46.145081,-3.768 -16.932973,0 -33.865946,0 -50.798919,0 6.67e-4,-18.11433 0.0013,-36.22867 0.002,-54.343 C 43.335576,136.60521 58.996616,125.52033 70.714125,111.08962 73.440113,96.366787 71.346336,81.000473 72.004,66.005 90.096327,65.465663 108.39128,67.15421 126.33914,65.026469 139.51807,58.555737 136.0475,42.028047 139.064,30.004 c 17.07516,0.551438 34.83401,-1.10305 51.48528,0.816074 12.91505,7.480122 23.85682,19.552147 38.45472,23.184926 26.66667,0 53.33333,0 80,0 0.49494,15.047255 -1.06585,30.276224 0.92498,45.19125 7.88528,13.93002 26.4003,10.55141 39.9382,14.68228 44.04561,7.89249 88.09121,15.78498 132.13682,23.67747 -3.3e-4,25.91333 -6.7e-4,51.82667 -0.001,77.74 z"
     style="stroke:none;fill:#e6e6e6;fill-opacity:1"
     id="path2" />
</svg>
