<?xml version="1.0" encoding="UTF-8" standalone="no"?>
<svg
   xmlns:dc="http://purl.org/dc/elements/1.1/"
   xmlns:cc="http://creativecommons.org/ns#"
   xmlns:rdf="http://www.w3.org/1999/02/22-rdf-syntax-ns#"
   xmlns:svg="http://www.w3.org/2000/svg"
   xmlns="http://www.w3.org/2000/svg"
   xmlns:sodipodi="http://sodipodi.sourceforge.net/DTD/sodipodi-0.dtd"
   xmlns:inkscape="http://www.inkscape.org/namespaces/inkscape"
   sodipodi:docname="covid.svg"
   inkscape:version="1.0 (4035a4fb49, 2020-05-01)"
   id="svg8"
   version="1.1"
   viewBox="0 0 117.34637 125.97869"
   height="125.97869mm"
   width="117.34637mm">
  <defs
     id="defs2" />
  <sodipodi:namedview
     inkscape:window-maximized="1"
     inkscape:window-y="-8"
     inkscape:window-x="-8"
     inkscape:window-height="801"
     inkscape:window-width="1536"
     showgrid="false"
     inkscape:document-rotation="0"
     inkscape:current-layer="layer1"
     inkscape:document-units="mm"
     inkscape:cy="309.25516"
     inkscape:cx="179.59549"
     inkscape:zoom="0.49497475"
     inkscape:pageshadow="2"
     inkscape:pageopacity="0.0"
     borderopacity="1.0"
     bordercolor="#666666"
     pagecolor="#ffffff"
     id="base" />
  <metadata
     id="metadata5">
    <rdf:RDF>
      <cc:Work
         rdf:about="">
        <dc:format>image/svg+xml</dc:format>
        <dc:type
           rdf:resource="http://purl.org/dc/dcmitype/StillImage" />
        <dc:title></dc:title>
      </cc:Work>
    </rdf:RDF>
  </metadata>
  <g
     transform="translate(326.22108,-103.77954)"
     id="layer1"
     inkscape:groupmode="layer"
     inkscape:label="Layer 1">
    <g
       style="fill:#e6e6e6"
       transform="translate(105.30419,25.657875)"
       id="g974">
      <path
         id="path840"
         style="fill:#e6e6e6;stroke-width:0.465"
         d="m -420.17387,94.747257 c -4.71326,0.01434 -8.52654,3.839167 -8.52662,8.552443 1.1e-4,4.72356 3.82942,8.55264 8.55298,8.55245 0.10062,-1.2e-4 0.50924,0.003 0.60978,-10e-4 4.82132,0.47856 16.00174,6.64606 19.70267,14.76758 l 6.28076,-8.08478 c -5.61985,-2.19012 -16.66393,-11.46557 -18.11364,-16.34784 -0.0578,-0.34502 -0.093,-0.44608 -0.14573,-0.74879 l -0.031,-0.18914 c -0.94356,-3.818327 -4.36964,-6.500874 -8.30283,-6.50089 -0.009,-1.3e-5 -0.0175,-1.3e-5 -0.0265,0 z m 0.0233,1.188556 a 7.2562957,7.2562957 0 0 1 7.25638,7.256407 7.2562957,7.2562957 0 0 1 -7.25638,7.25588 7.2562957,7.2562957 0 0 1 -7.25641,-7.25588 7.2562957,7.2562957 0 0 1 7.25641,-7.256407 z" />
      <path
         id="path833"
         style="fill:#e6e6e6;stroke-width:0.327318"
         d="m -371.54417,107.44228 a 33.675965,33.675965 0 0 0 -33.63652,33.67616 33.675965,33.675965 0 0 0 33.67617,33.6758 33.675965,33.675965 0 0 0 33.67579,-33.6758 33.675965,33.675965 0 0 0 -33.67579,-33.67616 33.675965,33.675965 0 0 0 -0.0396,0 z m -0.009,4.13917 a 29.537021,29.537021 0 0 1 0.0484,0 29.537021,29.537021 0 0 1 29.53697,29.53699 29.537021,29.537021 0 0 1 -29.53697,29.53698 29.537021,29.537021 0 0 1 -29.537,-29.53698 29.537021,29.537021 0 0 1 29.48861,-29.53699 z" />
      <path
         d="m -358.17755,81.387738 c -1.85121,-3.146332 -5.89898,-4.201933 -9.05096,-2.360355 -3.15878,1.845718 -4.2232,5.902669 -2.37742,9.061417 0.0394,0.06724 0.19696,0.341721 0.23893,0.407393 1.56381,3.411187 1.80792,13.297797 -2.17717,18.946087 l 7.86069,1.0412 c -0.73124,-4.61396 1.15633,-15.623771 3.85484,-18.500906 0.20814,-0.173466 0.26197,-0.23649 0.4438,-0.390033 l 0.11437,-0.09463 c 2.18478,-2.12294 2.64002,-5.462247 1.10321,-8.092525 -0.004,-0.006 -0.007,-0.01171 -0.0104,-0.01772 z m -0.78572,0.479989 a 5.6201486,5.6201486 0 0 1 -2.01733,7.687925 5.6201486,5.6201486 0 0 1 -7.68758,-2.017505 5.6201486,5.6201486 0 0 1 2.01696,-7.687744 5.6201486,5.6201486 0 0 1 7.68795,2.017324 z"
         style="fill:#e6e6e6;stroke-width:0.360152"
         id="path876" />
      <path
         id="path886"
         style="fill:#e6e6e6;stroke-width:0.332778"
         d="m -315.15235,127.81985 c 1.82454,-2.83701 1.00995,-6.61539 -1.82146,-8.44861 -2.83766,-1.83709 -6.62729,-1.02595 -8.46433,1.81174 -0.0391,0.0605 -0.19987,0.30475 -0.23657,0.36671 -2.16268,2.71022 -10.21618,7.02794 -16.5345,6.09249 l 2.41401,6.91754 c 3.50145,-2.52424 13.36899,-5.55127 16.8658,-4.52328 0.22975,0.0995 0.30414,0.11763 0.50651,0.20369 l 0.12567,0.055 c 2.6608,0.91825 5.60483,-0.0966 7.1346,-2.45939 0.004,-0.006 0.007,-0.0105 0.0103,-0.0159 z m -0.72307,-0.44827 a 5.1929734,5.1929734 0 0 1 -7.18145,1.5369 5.1929734,5.1929734 0 0 1 -1.53662,-7.18125 5.1929734,5.1929734 0 0 1 7.18115,-1.53712 5.1929734,5.1929734 0 0 1 1.53692,7.18147 z" />
      <path
         d="m -333.93047,197.37873 c 4.62562,0.90481 9.11141,-2.10321 10.03037,-6.72603 0.92077,-4.63294 -2.08856,-9.1351 -6.72152,-10.0558 -0.0987,-0.0195 -0.49888,-0.10222 -0.59827,-0.1179 -4.63551,-1.40932 -14.39901,-9.63817 -16.44559,-18.32537 l -7.73642,6.70517 c 5.08504,3.24372 14.1089,14.49431 14.57897,19.56553 -0.0106,0.34967 0.004,0.45564 -0.003,0.76283 l -0.006,0.19155 c 0.18105,3.92902 3.01841,7.22803 6.87613,7.99484 0.009,0.002 0.0172,0.003 0.026,0.005 z m 0.20887,-1.1703 a 7.2562957,7.2562957 0 0 1 -5.70247,-8.53184 7.2562957,7.2562957 0 0 1 8.53173,-5.70199 7.2562957,7.2562957 0 0 1 5.70259,8.53134 7.2562957,7.2562957 0 0 1 -8.53185,5.70249 z"
         style="fill:#e6e6e6;stroke-width:0.465"
         id="path896" />
      <path
         id="path906"
         style="fill:#e6e6e6;stroke-width:0.394934"
         d="m -392.31946,199.76248 c 1.61352,3.66351 5.88683,5.33109 9.55525,3.72878 3.67634,-1.60596 5.35471,-5.88812 3.74869,-9.56445 -0.0343,-0.0782 -0.17079,-0.39737 -0.20809,-0.47425 -1.26663,-3.91519 -0.26741,-14.71378 4.79544,-20.35532 l -8.42774,-2.1398 c 0.20599,5.11856 -3.25853,16.86765 -6.56559,19.6558 -0.24888,0.16229 -0.31556,0.22404 -0.53324,0.368 l -0.13667,0.0884 c -2.65107,2.0325 -3.57415,5.61105 -2.237,8.67229 0.003,0.007 0.006,0.0136 0.009,0.0206 z m 0.91714,-0.4222 a 6.1629229,6.1629229 0 0 1 3.18078,-8.11468 6.1629229,6.1629229 0 0 1 8.11427,3.18093 6.1629229,6.1629229 0 0 1 -3.18036,8.11452 6.1629229,6.1629229 0 0 1 -8.11469,-3.18077 z" />
      <path
         d="m -431.00045,167.90455 c -1.56634,4.20055 0.49149,8.92208 4.60142,10.55749 4.11894,1.63881 8.74065,-0.44135 10.32279,-4.64616 0.0336,-0.0896 0.1732,-0.45225 0.2034,-0.54314 2.03235,-4.12572 11.15564,-11.93822 19.47731,-12.41478 l -4.94594,-8.39603 c -3.79232,4.24268 -15.58006,10.85548 -20.32299,10.45197 -0.32022,-0.0682 -0.42013,-0.072 -0.70177,-0.13009 l -0.1753,-0.038 c -3.64564,-0.4849 -7.13249,1.63412 -8.45005,5.1353 -0.003,0.008 -0.006,0.0155 -0.009,0.0235 z m 1.04422,0.39165 a 6.9343933,6.7764646 83.876277 0 1 8.75832,-3.94165 6.9343933,6.7764646 83.876277 0 1 3.89632,8.9769 6.9343933,6.7764646 83.876277 0 1 -8.75785,3.94186 6.9343933,6.7764646 83.876277 0 1 -3.89679,-8.97711 z"
         style="fill:#e6e6e6;stroke-width:0.439282"
         id="path916" />
      <circle
         r="10.556471"
         style="fill:#e6e6e6;stroke:none;stroke-width:0.371056"
         id="path962"
         cx="-376.71811"
         cy="131.73029" />
      <circle
         r="6.2801585"
         cy="141.35197"
         cx="-352.1293"
         id="circle976"
         style="fill:#e6e6e6;stroke:none;stroke-width:0.220745" />
      <circle
         style="fill:#e6e6e6;stroke:none;stroke-width:0.220745"
         id="circle978"
         cx="-377.78717"
         cy="155.78453"
         r="6.2801585" />
    </g>
  </g>
</svg>
